<svg width="53" height="53" viewBox="0 0 53 53" fill="none" xmlns="http://www.w3.org/2000/svg">
<mask id="mask0_7_56" style="mask-type:luminance" maskUnits="userSpaceOnUse" x="0" y="0" width="53" height="53">
<path d="M53 0H0.0319824V53H53V0Z" fill="white"/>
</mask>
<g mask="url(#mask0_7_56)">
<path d="M36.4486 0H16.5834C7.44326 0 0.0319824 7.41669 0.0319824 16.5625V36.4375C0.0319824 45.5834 7.44326 53 16.5834 53H36.4486C45.5887 53 53 45.5834 53 36.4375V16.5625C53 7.41669 45.5887 0 36.4486 0ZM48.0337 36.4375C48.0337 42.8306 42.8365 48.0311 36.4486 48.0311H16.5834C10.1955 48.0311 4.99825 42.8306 4.99825 36.4375V16.5625C4.99825 10.1694 10.1955 4.96875 16.5834 4.96875H36.4486C42.8365 4.96875 48.0337 10.1694 48.0337 16.5625V36.4375Z" fill="#E0E0E0"/>
<path d="M26.5161 13.25C19.2022 13.25 13.274 19.1827 13.274 26.5C13.274 33.8174 19.2022 39.75 26.5161 39.75C33.8299 39.75 39.7581 33.8174 39.7581 26.5C39.7581 19.1827 33.8299 13.25 26.5161 13.25ZM26.5161 34.7811C21.9544 34.7811 18.2403 31.0646 18.2403 26.5C18.2403 21.932 21.9544 18.2187 26.5161 18.2187C31.0777 18.2187 34.7918 21.932 34.7918 26.5C34.7918 31.0646 31.0777 34.7811 26.5161 34.7811Z" fill="#E0E0E0"/>
<path d="M40.7517 14.0216C41.7263 14.0216 42.5166 13.2312 42.5166 12.2561C42.5166 11.281 41.7263 10.4905 40.7517 10.4905C39.7771 10.4905 38.9868 11.281 38.9868 12.2561C38.9868 13.2312 39.7771 14.0216 40.7517 14.0216Z" fill="#E0E0E0"/>
</g>
</svg>
