<svg width="94" height="53" viewBox="0 0 94 53" fill="none" xmlns="http://www.w3.org/2000/svg">
<path d="M93.447 47.8647C93.3326 47.6224 93.2288 47.4212 93.1313 47.2603C91.5126 44.3574 88.4214 40.7945 83.8598 36.5706L83.7623 36.4737L83.7157 36.4265L83.667 36.3777H83.6182C81.5461 34.4108 80.2347 33.0883 79.6859 32.4112C78.6816 31.1214 78.457 29.8157 79.0058 28.4928C79.3935 27.4934 80.8512 25.3825 83.3746 22.1576C84.7009 20.4486 85.7518 19.0788 86.5294 18.0468C92.127 10.6303 94.5551 5.8911 93.8093 3.82726L93.5212 3.34498C93.3262 3.05462 92.8241 2.78899 92.0169 2.54673C91.2075 2.30501 90.1715 2.26503 88.9087 2.42613L74.9315 2.52235C74.7042 2.44239 74.3808 2.44985 73.9596 2.54673C73.5389 2.64364 73.3285 2.69227 73.3285 2.69227L73.085 2.81339L72.892 2.95891C72.7301 3.05513 72.5522 3.22435 72.3579 3.46626C72.1644 3.70733 72.0028 3.99022 71.8738 4.31261C70.3519 8.21413 68.6215 11.8416 66.6795 15.1947C65.4822 17.1942 64.3826 18.927 63.3783 20.3942C62.3755 21.861 61.5342 22.9416 60.8551 23.6342C60.175 24.3276 59.5614 24.8831 59.0101 25.3026C58.4599 25.7224 58.0398 25.8998 57.7489 25.835C57.4573 25.7701 57.1827 25.7056 56.923 25.6414C56.4702 25.351 56.106 24.956 55.8314 24.4563C55.5558 23.9566 55.3702 23.3276 55.2729 22.5699C55.1765 21.8116 55.1193 21.1594 55.103 20.6111C55.088 20.0634 55.0948 19.2887 55.1276 18.2892C55.1613 17.2892 55.1765 16.6126 55.1765 16.2579C55.1765 15.0324 55.2005 13.7024 55.2486 12.2676C55.2975 10.8328 55.3371 9.6959 55.3702 8.85838C55.4032 8.02 55.4185 7.13299 55.4185 6.19788C55.4185 5.26279 55.3615 4.52944 55.2486 3.99718C55.1369 3.46559 54.9657 2.94958 54.7403 2.44934C54.5132 1.9496 54.1812 1.56302 53.7451 1.28859C53.3085 1.01449 52.7654 0.796978 52.1192 0.635368C50.4041 0.248621 48.2199 0.0394072 45.566 0.0068818C39.5478 -0.0574914 35.6807 0.329764 33.9656 1.16814C33.2861 1.52236 32.6713 2.00635 32.1215 2.61856C31.5388 3.32821 31.4575 3.71545 31.8782 3.77915C33.82 4.069 35.1947 4.76237 36.0036 5.85858L36.2951 6.43946C36.522 6.85856 36.7485 7.60056 36.975 8.6644C37.2013 9.72826 37.3473 10.9051 37.4117 12.1943C37.5731 14.5485 37.5731 16.5637 37.4117 18.2401C37.2496 19.9172 37.0966 21.2227 36.9507 22.1578C36.8045 23.0929 36.5862 23.8506 36.2951 24.4309C36.0036 25.0113 35.8097 25.366 35.7125 25.4947C35.6154 25.6236 35.5345 25.7046 35.4701 25.7366C35.0495 25.8971 34.6122 25.9789 34.1595 25.9789C33.7061 25.9789 33.1562 25.7529 32.5092 25.3014C31.8623 24.8498 31.1909 24.2293 30.4951 23.4391C29.7993 22.649 29.0146 21.5447 28.1406 20.126C27.2672 18.7075 26.3611 17.0309 25.4227 15.0963L24.6464 13.6933C24.161 12.7907 23.4978 11.4765 22.6565 9.75181C21.8147 8.02643 21.0706 6.35748 20.4238 4.74526C20.1651 4.06815 19.7767 3.55265 19.2589 3.19794L19.0161 3.05242C18.8547 2.92367 18.5953 2.78695 18.2396 2.64127C17.8834 2.49575 17.5118 2.3914 17.1232 2.32719L3.82402 2.42341C2.46486 2.42341 1.54279 2.7302 1.05718 3.34294L0.862901 3.63279C0.765864 3.79423 0.716919 4.05206 0.716919 4.40697C0.716919 4.76169 0.81395 5.19705 1.00824 5.71255C2.94983 10.2593 5.06114 14.6443 7.34216 18.8682C9.62339 23.0921 11.6057 26.4947 13.2877 29.0726C14.9702 31.6524 16.6853 34.0873 18.4328 36.3758C20.1803 38.6654 21.3369 40.1327 21.9029 40.7771C22.4696 41.4229 22.9146 41.9056 23.2381 42.2281L24.4519 43.3888C25.2284 44.1628 26.3687 45.0896 27.8734 46.1696C29.3786 47.2501 31.0447 48.3142 32.873 49.3629C34.7016 50.41 36.8288 51.2644 39.256 51.9252C41.6828 52.5868 44.0448 52.8522 46.3425 52.7242H51.9245C53.0565 52.6267 53.9142 52.272 54.4971 51.6597L54.6903 51.4174C54.8202 51.2249 54.9418 50.926 55.0539 50.5236C55.1674 50.1206 55.2238 49.6767 55.2238 49.1935C55.1907 47.8075 55.2967 46.558 55.5388 45.4458C55.7806 44.3339 56.0564 43.4954 56.3647 42.9308C56.673 42.3667 57.0209 41.8906 57.408 41.5047C57.7959 41.118 58.0724 40.8838 58.2345 40.803C58.3957 40.722 58.5243 40.6669 58.6214 40.6338C59.3981 40.376 60.3119 40.6258 61.3647 41.3841C62.4164 42.1418 63.4029 43.0776 64.3258 44.1895C65.2481 45.3025 66.3562 46.5512 67.6503 47.9372C68.945 49.3241 70.0773 50.3549 71.0479 51.0331L72.0183 51.6133C72.6662 52.0006 73.5075 52.3553 74.5434 52.6778C75.5777 53 76.4824 53.0806 77.26 52.9194L89.6863 52.7263C90.9151 52.7263 91.8707 52.5236 92.5487 52.1213C93.2288 51.7182 93.6335 51.2743 93.7627 50.7912C93.8919 50.3078 93.9004 49.7592 93.7881 49.146C93.6716 48.5342 93.5593 48.1066 93.447 47.8647Z" fill="#E0E0E0"/>
</svg>
