<svg width="30" height="53" viewBox="0 0 30 53" fill="none" xmlns="http://www.w3.org/2000/svg">
<path d="M28.2262 0.0110275L21.3573 0C13.6409 0 8.65342 5.11952 8.65342 13.0434V19.0572H1.74851C1.15103 19.0572 0.667969 19.5414 0.667969 20.1385V28.8519C0.667969 29.4491 1.15103 29.9325 1.74851 29.9325H8.65342V51.9192C8.65342 52.5164 9.13648 53 9.73396 53H18.7449C19.3424 53 19.8254 52.5158 19.8254 51.9192V29.9325H27.8999C28.4974 29.9325 28.9804 29.4491 28.9804 28.8519L28.9826 20.1385C28.9826 19.8518 28.8681 19.5772 28.6669 19.3743C28.4635 19.1714 28.188 19.0572 27.902 19.0572H19.8254V13.9592C19.8254 11.5089 20.4081 10.265 23.5989 10.265L28.2262 10.2633C28.8215 10.2633 29.3046 9.77922 29.3046 9.18263V1.09173C29.3046 0.495688 28.8215 0.0121303 28.2262 0.0110275Z" fill="#E0E0E0"/>
</svg>
