<svg width="50" height="45" viewBox="0 0 50 45" fill="none" xmlns="http://www.w3.org/2000/svg">
<path d="M43.6965 36.8686C47.6137 32.9534 50 27.8064 50 22.1723C50 16.3104 47.4172 10.9768 43.2137 7.00798C43.2102 7.0034 43.2053 7.0011 43.2025 6.99727C38.8243 2.86941 32.6897 0.227081 25.8665 0.0198788L25.3785 0.00764592C25.2525 0.00382421 25.1268 0 25 0C24.8733 0 24.7474 0.00382421 24.6216 0.00764592L24.1362 0.019116C17.3129 0.226318 11.1776 2.86941 6.79915 6.99727C6.7957 7.0011 6.79052 7.00263 6.78792 7.0072C2.5836 10.9753 0 16.3104 0 22.1723C0 27.8064 2.38621 32.9534 6.30345 36.8686C6.30862 36.8756 6.30863 36.8831 6.31465 36.8901C6.33018 36.9092 6.35258 36.9184 6.36898 36.9359C10.7707 41.3001 17.0862 44.1114 24.1345 44.3255L24.6207 44.3377C24.7474 44.3407 24.8733 44.3445 25 44.3445C25.1268 44.3445 25.2525 44.3407 25.3785 44.337L25.8637 44.3255C32.9198 44.1106 39.243 41.2931 43.6447 36.9199C43.656 36.9069 43.6743 36.9032 43.6845 36.8894C43.6915 36.8831 43.6915 36.8756 43.6965 36.8686ZM1.74569 22.9369H12.0931C12.1905 26.1779 12.9043 29.327 14.175 32.2776C11.7233 33.0642 9.3793 34.1194 7.18275 35.436C3.95258 32.0282 1.94224 27.6848 1.74569 22.9369ZM7.65345 8.42776C9.79827 9.66484 12.0819 10.6557 14.4638 11.3958C13.0052 14.5359 12.1983 17.9213 12.0931 21.4077H1.74569C1.95172 16.4327 4.14827 11.9027 7.65345 8.42776ZM48.2543 21.4077H37.907C37.8017 17.9213 36.9948 14.5359 35.5363 11.3958C37.918 10.6557 40.2018 9.66484 42.3465 8.42776C45.8518 11.9027 48.0483 16.4327 48.2543 21.4077ZM24.1379 11.4401C21.6457 11.3775 19.1991 11.0479 16.8353 10.4592C18.5827 7.28015 21.05 4.41077 24.1379 2.02151V11.4401ZM24.1379 12.9693V21.4077H13.8172C13.9233 18.0834 14.7095 14.8593 16.1155 11.8698C18.7069 12.5358 21.3974 12.9043 24.1379 12.9693ZM25.862 12.9693C28.6025 12.9043 31.293 12.5365 33.8853 11.8698C35.2915 14.8593 36.0775 18.0834 36.1835 21.4077H25.862V12.9693ZM25.862 11.4401V2.02151C28.95 4.41077 31.4172 7.28015 33.1647 10.4592C30.8007 11.0479 28.3543 11.3775 25.862 11.4401ZM34.8353 9.99436C33.1793 6.91699 30.881 4.11334 28.0352 1.71032C33.0835 2.29598 37.6257 4.32053 41.1242 7.30539C39.138 8.42319 37.031 9.32231 34.8353 9.99436ZM15.1646 9.99436C12.969 9.32231 10.8621 8.42319 8.87672 7.30539C12.3741 4.32053 16.9173 2.29598 21.9655 1.71032C19.119 4.11334 16.8207 6.91699 15.1646 9.99436ZM13.8172 22.9369H24.1379V30.6116C21.2871 30.6789 18.494 31.0733 15.8095 31.7896C14.5966 28.9951 13.9146 26.0096 13.8172 22.9369ZM24.1379 32.1405V42.3231C20.8328 39.7657 18.2414 36.6585 16.4793 33.2118C18.9509 32.5657 21.5181 32.2063 24.1379 32.1405ZM25.862 42.3231V32.1405C28.482 32.2056 31.0493 32.5657 33.5208 33.211C31.7585 36.6585 29.1673 39.7657 25.862 42.3231ZM25.862 30.6116V22.9369H36.1827C36.0852 26.0096 35.4035 28.9951 34.1898 31.7904C31.506 31.0733 28.713 30.6789 25.862 30.6116ZM37.907 22.9369H48.2543C48.0578 27.6848 46.0482 32.0282 42.8172 35.436C40.6207 34.1194 38.2767 33.0642 35.825 32.2776C37.0965 29.327 37.8095 26.1779 37.907 22.9369ZM8.3543 36.5813C10.394 35.3792 12.5655 34.413 14.8345 33.6905C16.5112 37.024 18.9181 40.0616 21.9647 42.6342C16.6621 42.0187 11.9164 39.817 8.3543 36.5813ZM28.0352 42.6342C31.082 40.0623 33.4888 37.0247 35.1655 33.6905C37.4345 34.413 39.6053 35.3792 41.6458 36.5813C38.0835 39.817 33.338 42.0187 28.0352 42.6342Z" fill="white"/>
</svg>
